<?xml version="1.0" standalone="no"?><!-- Generator: Gravit.io --><svg xmlns="http://www.w3.org/2000/svg" xmlns:xlink="http://www.w3.org/1999/xlink" style="isolation:isolate" viewBox="0 0 216.899 162" width="216.899" height="162"><defs><clipPath id="_clipPath_lLmCwgaefgYyNBIsHLXZCGRCNofAwKet"><rect width="216.899" height="162"/></clipPath></defs><g clip-path="url(#_clipPath_lLmCwgaefgYyNBIsHLXZCGRCNofAwKet)"><path d=" M 168.644 75.068 C 175.739 73.107 185.24 73.787 191.861 77.76 C 192.127 77.841 192.388 77.921 192.644 78 Q 244.87 127.233 184.644 160 C 179.594 161.5 173.644 162 168.644 162 Q 161.144 162 154.644 160 C 142.926 149.341 142.936 138.351 154.644 127 C 161.826 128.515 169.503 128.525 177.644 127 Q 185.543 119.076 177.644 109 C 167.875 105.043 163.707 104.795 163.644 107 L 168.644 75.068 Z " fill="rgb(176,158,140)"/><path d=" M 172.644 107 L 172.644 52 Q 156.777 0 103.644 0 Q 50.646 0 32.644 78 L 26.644 84 L 6.644 84 C -1.79 84 -2.629 107 6.644 107 C 19.604 107 129.929 107 172.644 107 Z " fill="rgb(176,158,140)"/></g></svg>