<?xml version="1.0" standalone="no"?><!-- Generator: Gravit.io --><svg xmlns="http://www.w3.org/2000/svg" xmlns:xlink="http://www.w3.org/1999/xlink" style="isolation:isolate" viewBox="0 0 143.675 30.577" width="143.675" height="30.577"><defs><clipPath id="_clipPath_cjDkLh53bLEDlvyQTTFge4uZYLQ4mgpu"><rect width="143.675" height="30.577"/></clipPath></defs><g clip-path="url(#_clipPath_cjDkLh53bLEDlvyQTTFge4uZYLQ4mgpu)"><g style="isolation:isolate"><path d=" M 67.714 2.475 L 72.001 2.475 L 76.287 2.475 C 78.07 2.475 78.588 3.584 77.443 4.951 L 75.759 6.961 L 74.075 8.971 C 72.93 10.338 71.071 10.338 69.926 8.971 L 68.242 6.961 L 66.558 4.951 C 65.413 3.584 65.931 2.475 67.714 2.475 Z " fill="rgb(0,0,0)"/><rect x="70.001" y="8.187" width="4" height="12" transform="matrix(1,0,0,1,0,0)" fill="rgb(0,0,0)"/><path d=" M 71.546 20.352 Q 61.888 28.802 53.438 20.352" fill="none" vector-effect="non-scaling-stroke" stroke-width="4" stroke="rgb(0,0,0)" stroke-linejoin="miter" stroke-linecap="square" stroke-miterlimit="3"/><path d=" M 72.295 20.348 Q 76.085 23.664 79.689 24.377 C 83.408 25.113 86.98 23.77 90.402 20.348" fill="none" vector-effect="non-scaling-stroke" stroke-width="4" stroke="rgb(0,0,0)" stroke-linejoin="miter" stroke-linecap="square" stroke-miterlimit="3"/><path d=" M 35.675 11.749 Q 20.013 2.028 3 3.108" fill="none" vector-effect="non-scaling-stroke" stroke-width="2" stroke="rgb(0,0,0)" stroke-linejoin="miter" stroke-linecap="square" stroke-miterlimit="3"/><path d=" M 33.675 17.69 Q 17.472 8.779 9.911 10.669" fill="none" vector-effect="non-scaling-stroke" stroke-width="2" stroke="rgb(0,0,0)" stroke-linejoin="miter" stroke-linecap="square" stroke-miterlimit="3"/><path d=" M 108 11.749 Q 123.662 2.028 140.675 3.108" fill="none" vector-effect="non-scaling-stroke" stroke-width="2" stroke="rgb(0,0,0)" stroke-linejoin="miter" stroke-linecap="square" stroke-miterlimit="3"/><path d=" M 110 16.69 Q 126.202 7.779 133.764 9.669" fill="none" vector-effect="non-scaling-stroke" stroke-width="2" stroke="rgb(0,0,0)" stroke-linejoin="miter" stroke-linecap="square" stroke-miterlimit="3"/></g></g></svg>