<?xml version="1.0" standalone="no"?><!-- Generator: Gravit.io --><svg xmlns="http://www.w3.org/2000/svg" xmlns:xlink="http://www.w3.org/1999/xlink" style="isolation:isolate" viewBox="0 0 112 109" width="112" height="109"><defs><clipPath id="_clipPath_vo7SR52OiR9nqRpVIGEQfW9mn6SVa4RJ"><rect width="112" height="109"/></clipPath></defs><g clip-path="url(#_clipPath_vo7SR52OiR9nqRpVIGEQfW9mn6SVa4RJ)"><g style="isolation:isolate"><path d="M 26 57 L 85.999 57 C 100.349 57 111.999 68.65 111.999 83 L 111.999 83 C 111.999 97.35 100.349 109 85.999 109 L 26 109 C 11.65 109 0 97.35 0 83 L 0 83 C 0 68.65 11.65 57 26 57 Z" style="stroke:none;fill:#EE933A;stroke-miterlimit:10;"/><path d=" M 112 82.001 L 112 7.001 Q 111.207 0.151 103.788 0.001 Q 96.368 -0.149 74.018 25.001 L 54.513 25.001 L 54.513 82.001 L 112 82.001 Z " fill="rgb(238,147,58)"/><path d=" M 0 82.001 L 0 7.001 Q 0.779 0.151 8.071 0.001 Q 15.362 -0.149 37.327 25.001 L 56.496 25.001 L 56.496 82.001 L 0 82.001 Z " fill="rgb(238,147,58)"/></g></g></svg>