<?xml version="1.0" standalone="no"?><!-- Generator: Gravit.io --><svg xmlns="http://www.w3.org/2000/svg" xmlns:xlink="http://www.w3.org/1999/xlink" style="isolation:isolate" viewBox="0 0 238.344 219.801" width="238.344" height="219.801"><defs><clipPath id="_clipPath_p6ssykxNhg3AEm5gEtJMZflaFls6jX4q"><rect width="238.344" height="219.801"/></clipPath></defs><g clip-path="url(#_clipPath_p6ssykxNhg3AEm5gEtJMZflaFls6jX4q)"><g style="isolation:isolate"><path d=" M 177 64.836 C 193.501 57.723 201.672 41.169 201.433 15.096 C 209.588 -4.82 230.14 -5.243 238.083 15.096 Q 241.622 71.642 197.07 96.25 C 170.95 110.677 179.676 69.955 177 64.836 Z " fill="rgb(238,147,58)"/></g><g style="isolation:isolate"><path d=" M 191 63.499 L 191 154.658 L 42 154.658 Q 23.4 149.564 13 139.465 Q 1.302 128.105 0 115.334 L 0 63.499 L 191 63.499 Z " fill="rgb(238,147,58)"/></g><g style="isolation:isolate"><path d="M 27.5 120 L 27.5 120 C 35.503 120 42 128.833 42 139.712 L 42 200.089 C 42 210.968 35.503 219.801 27.5 219.801 L 27.5 219.801 C 19.497 219.801 13 210.968 13 200.089 L 13 139.712 C 13 128.833 19.497 120 27.5 120 Z" style="stroke:none;fill:#EE933A;stroke-miterlimit:10;"/><path d="M 66.5 133.801 L 66.5 133.801 C 74.503 133.801 81 142 81 152.1 L 81 201.502 C 81 211.602 74.503 219.801 66.5 219.801 L 66.5 219.801 C 58.497 219.801 52 211.602 52 201.502 L 52 152.1 C 52 142 58.497 133.801 66.5 133.801 Z" style="stroke:none;fill:#EE933A;stroke-miterlimit:10;"/><path d="M 137.5 133.801 L 137.5 133.801 C 145.503 133.801 152 142 152 152.1 L 152 201.502 C 152 211.602 145.503 219.801 137.5 219.801 L 137.5 219.801 C 129.497 219.801 123 211.602 123 201.502 L 123 152.1 C 123 142 129.497 133.801 137.5 133.801 Z" style="stroke:none;fill:#EC943A;stroke-miterlimit:10;"/><path d="M 176.5 133.801 L 176.5 133.801 C 184.503 133.801 191 142 191 152.1 L 191 201.502 C 191 211.602 184.503 219.801 176.5 219.801 L 176.5 219.801 C 168.497 219.801 162 211.602 162 201.502 L 162 152.1 C 162 142 168.497 133.801 176.5 133.801 Z" style="stroke:none;fill:#EC943A;stroke-miterlimit:10;"/></g></g></svg>